0
SECTION
2
HEADER
9
$INSUNITS
70
4
9
$ACADVER
1
AC1014
9
$HANDSEED
5
FFFF
0
ENDSEC
0
SECTION
2
TABLES
0
TABLE
2
VPORT
5
8
100
AcDbSymbolTable
0
ENDTAB
0
TABLE
2
LTYPE
5
5
100
AcDbSymbolTable
0
LTYPE
5
14
100
AcDbSymbolTableRecord
100
AcDbLinetypeTableRecord
2
BYBLOCK
70
0
0
LTYPE
5
15
100
AcDbSymbolTableRecord
100
AcDbLinetypeTableRecord
2
BYLAYER
70
0
0
LTYPE
5
16
100
AcDbSymbolTableRecord
100
AcDbLinetypeTableRecord
2
DASHED
70
0
3
Dashed __ __ __ __ __ __ __ __ __ __ __ __ __ _
72
65
73
2
40
0.75
49
0.5
74
0
49
-0.25
74
0
0
ENDTAB
0
TABLE
2
LAYER
5
2
100
AcDbSymbolTable
70
2
0
LAYER
5
50
100
AcDbSymbolTableRecord
100
AcDbLayerTableRecord
2
0
70
0
62
7
6
CONTINUOUS
0
ENDTAB
0
TABLE
2
STYLE
5
3
100
AcDbSymbolTable
70
1
0
STYLE
5
11
100
AcDbSymbolTableRecord
100
AcDbTextStyleTableRecord
2
STANDARD
70
0
0
ENDTAB
0
TABLE
2
VIEW
5
6
100
AcDbSymbolTable
70
0
0
ENDTAB
0
TABLE
2
UCS
5
7
100
AcDbSymbolTable
70
0
0
ENDTAB
0
TABLE
2
APPID
5
9
100
AcDbSymbolTable
70
2
0
APPID
5
12
100
AcDbSymbolTableRecord
100
AcDbRegAppTableRecord
2
ACAD
70
0
0
ENDTAB
0
TABLE
2
DIMSTYLE
5
A
100
AcDbSymbolTable
70
1
0
ENDTAB
0
TABLE
2
BLOCK_RECORD
5
1
100
AcDbSymbolTable
70
1
0
BLOCK_RECORD
5
1F
100
AcDbSymbolTableRecord
100
AcDbBlockTableRecord
2
*MODEL_SPACE
0
BLOCK_RECORD
5
1B
100
AcDbSymbolTableRecord
100
AcDbBlockTableRecord
2
*PAPER_SPACE
0
ENDTAB
0
ENDSEC
0
SECTION
2
BLOCKS
0
BLOCK
5
20
100
AcDbEntity
100
AcDbBlockBegin
2
*MODEL_SPACE
0
ENDBLK
5
21
100
AcDbEntity
100
AcDbBlockEnd
0
BLOCK
5
1C
100
AcDbEntity
100
AcDbBlockBegin
2
*PAPER_SPACE
0
ENDBLK
5
1D
100
AcDbEntity
100
AcDbBlockEnd
0
ENDSEC
0
SECTION
2
ENTITIES
0
LWPOLYLINE
5
100
100
AcDbEntity
8
0
100
AcDbPolyline
90
4
70
1
43
0.0
10
-45.18763707817552
20
14.755145323457796
10
-75.187637078175527
20
14.755145323457795
42
-0.99999999999999989
10
-75.187637078175527
20
20.244854676542197
10
-45.18763707817552
20
20.244854676542197
42
-0.99999999999999989
0
LWPOLYLINE
5
101
100
AcDbEntity
8
0
100
AcDbPolyline
90
4
70
1
43
0.0
10
-45.18763707817552
20
-9.2448546765422019
10
-75.187637078175527
20
-9.2448546765422019
42
-0.99999999999999989
10
-75.187637078175527
20
-3.7551453234578132
10
-45.18763707817552
20
-3.7551453234578136
42
-0.99999999999999989
0
LWPOLYLINE
5
102
100
AcDbEntity
8
0
100
AcDbPolyline
90
23
70
1
43
0.0
10
-80.000000226747403
20
-26.000000000000007
10
-59.999999034654508
20
-26.000000000000007
10
-59.999999928724179
20
-30.000001400709166
10
-39.999999034654508
20
-30.000001400709166
10
-39.999999034654508
20
-26.000000000000007
10
-20
20
-26.000000000000007
10
-19.999999332677731
20
-30.000001400709166
10
0
20
-30.000001400709166
10
0
20
-26.000000000000007
10
20.000001263368716
20
-26.000001341104522
10
20.000001263368716
20
-30.000001400709166
10
40.000000965345492
20
-30.000001400709166
10
40.000000965345492
20
-26.000000000000007
10
60
20
-26.000000000000007
10
60.000001859415164
20
-30.000001400709166
10
80
20
-30.000001400709166
10
80
20
-26.000000000000007
10
100.00000000000001
20
-26.000000000000007
10
100
20
26.000000000000007
10
-100
20
25.999999999999993
10
-100
20
-26
10
-100.00000052477063
20
-30.000001400709166
10
-80.000000226747403
20
-30.000001400709166
0
LWPOLYLINE
5
103
100
AcDbEntity
8
0
100
AcDbPolyline
90
4
70
1
43
0.0
10
44.861203479359951
20
20.244854676542197
42
0.99999999999999989
10
44.861203479359936
20
14.755145323457795
10
74.861203479359958
20
14.755145323457796
42
0.99999999999999989
10
74.861203479359943
20
20.244854676542197
0
LWPOLYLINE
5
104
100
AcDbEntity
8
0
100
AcDbPolyline
90
4
70
1
43
0.0
10
14.868166684001141
20
-9.2448546765422019
10
-15.131833315998859
20
-9.2448546765422019
42
-0.99999999999999989
10
-15.131833315998859
20
-3.7551453234578132
10
14.868166684001141
20
-3.7551453234578136
42
-0.99999999999999989
0
LWPOLYLINE
5
105
100
AcDbEntity
8
0
100
AcDbPolyline
90
4
70
1
43
0.0
10
14.868166684001141
20
-21.244854676542204
42
0.99999999999999989
10
14.868166684001141
20
-15.755145323457818
10
-15.131833315998859
20
-15.755145323457818
42
0.99999999999999989
10
-15.131833315998859
20
-21.244854676542204
0
LWPOLYLINE
5
106
100
AcDbEntity
8
0
100
AcDbPolyline
90
4
70
1
43
0.0
10
14.868166684001141
20
14.755145323457796
10
-15.131833315998859
20
14.755145323457795
42
-0.99999999999999989
10
-15.131833315998859
20
20.244854676542197
10
14.868166684001135
20
20.244854676542197
42
-0.99999999999999989
0
LWPOLYLINE
5
107
100
AcDbEntity
8
0
100
AcDbPolyline
90
4
70
1
43
0.0
10
-45.18763707817552
20
-21.244854676542204
10
-75.187637078175527
20
-21.244854676542204
42
-0.99999999999999989
10
-75.187637078175527
20
-15.755145323457818
10
-45.18763707817552
20
-15.755145323457818
42
-0.99999999999999989
0
LWPOLYLINE
5
108
100
AcDbEntity
8
0
100
AcDbPolyline
90
4
70
1
43
0.0
10
44.861203479359951
20
-15.755145323457818
42
0.99999999999999989
10
44.861203479359972
20
-21.244854676542204
10
74.861203479359958
20
-21.244854676542204
42
0.99999999999999989
10
74.861203479359943
20
-15.755145323457816
0
LWPOLYLINE
5
109
100
AcDbEntity
8
0
100
AcDbPolyline
90
4
70
1
43
0.0
10
-45.18763707817552
20
2.7551453234577972
10
-75.187637078175527
20
2.7551453234577972
42
-0.99999999999999989
10
-75.187637078175527
20
8.2448546765421895
10
-45.18763707817552
20
8.2448546765421895
42
-0.99999999999999989
0
LWPOLYLINE
5
110
100
AcDbEntity
8
0
100
AcDbPolyline
90
4
70
1
43
0.0
10
44.861203479359951
20
8.2448546765421895
42
0.99999999999999989
10
44.861203479359951
20
2.7551453234577972
10
74.861203479359958
20
2.7551453234577972
42
0.99999999999999989
10
74.861203479359943
20
8.2448546765421895
0
LWPOLYLINE
5
111
100
AcDbEntity
8
0
100
AcDbPolyline
90
4
70
1
43
0.0
10
14.868166684001141
20
2.7551453234577972
10
-15.131833315998859
20
2.7551453234577972
42
-0.99999999999999989
10
-15.131833315998859
20
8.2448546765421895
10
14.868166684001141
20
8.2448546765421895
42
-0.99999999999999989
0
LWPOLYLINE
5
112
100
AcDbEntity
8
0
100
AcDbPolyline
90
4
70
1
43
0.0
10
44.861203479359951
20
-3.7551453234578132
42
0.99999999999999989
10
44.861203479359951
20
-9.2448546765422019
10
74.861203479359958
20
-9.2448546765422019
42
0.99999999999999989
10
74.861203479359943
20
-3.7551453234578136
0
LWPOLYLINE
5
113
100
AcDbEntity
8
0
100
AcDbPolyline
90
23
70
1
43
0.0
10
-100.00000052477063
20
-30.000001400709166
10
-100
20
-26.000000000000007
10
-100
20
25.999999999999993
10
100
20
26
10
100.00000000000001
20
-26
10
80
20
-26.000000000000007
10
80
20
-30.000001400709166
10
60.000001859415164
20
-30.000001400709166
10
60
20
-26.000000000000007
10
40.000000965345492
20
-26
10
40.000000965345492
20
-30.000001400709166
10
20.000001263368716
20
-30.000001400709166
10
20.000001263368716
20
-26.000001341104522
10
0
20
-26
10
0
20
-30.000001400709166
10
-19.999999332677731
20
-30.000001400709166
10
-20
20
-26
10
-39.999999034654508
20
-26.000000000000007
10
-39.999999034654508
20
-30.000001400709166
10
-59.999999928724179
20
-30.000001400709166
10
-59.999999034654508
20
-26.000000000000007
10
-80.000000226747403
20
-26.000000000000007
10
-80.000000226747403
20
-30.000001400709166
0
LWPOLYLINE
5
114
100
AcDbEntity
8
0
100
AcDbPolyline
90
4
70
1
43
0.0
10
74.861203479359958
20
-9.2448546765422019
10
44.861203479359951
20
-9.2448546765422019
42
-0.99999999999999989
10
44.861203479359951
20
-3.7551453234578132
10
74.861203479359958
20
-3.7551453234578136
42
-0.99999999999999989
0
LWPOLYLINE
5
115
100
AcDbEntity
8
0
100
AcDbPolyline
90
4
70
1
43
0.0
10
14.868166684001141
20
2.7551453234577972
42
0.99999999999999989
10
14.868166684001141
20
8.2448546765421895
10
-15.131833315998859
20
8.2448546765421895
42
0.99999999999999989
10
-15.131833315998859
20
2.7551453234577972
0
LWPOLYLINE
5
116
100
AcDbEntity
8
0
100
AcDbPolyline
90
4
70
1
43
0.0
10
74.861203479359958
20
2.7551453234577972
10
44.861203479359951
20
2.7551453234577972
42
-0.99999999999999989
10
44.861203479359951
20
8.2448546765421895
10
74.861203479359958
20
8.2448546765421895
42
-0.99999999999999989
0
LWPOLYLINE
5
117
100
AcDbEntity
8
0
100
AcDbPolyline
90
4
70
1
43
0.0
10
-45.18763707817552
20
2.7551453234577972
42
0.99999999999999989
10
-45.18763707817552
20
8.2448546765421895
10
-75.187637078175527
20
8.2448546765421895
42
0.99999999999999989
10
-75.187637078175527
20
2.7551453234577972
0
LWPOLYLINE
5
118
100
AcDbEntity
8
0
100
AcDbPolyline
90
4
70
1
43
0.0
10
74.861203479359958
20
-21.244854676542204
10
44.861203479359972
20
-21.244854676542204
42
-0.99999999999999989
10
44.861203479359951
20
-15.755145323457818
10
74.861203479359929
20
-15.755145323457818
42
-0.99999999999999989
0
LWPOLYLINE
5
119
100
AcDbEntity
8
0
100
AcDbPolyline
90
4
70
1
43
0.0
10
-45.18763707817552
20
-21.244854676542204
42
0.99999999999999989
10
-45.18763707817552
20
-15.755145323457818
10
-75.187637078175527
20
-15.755145323457818
42
0.99999999999999989
10
-75.187637078175527
20
-21.244854676542204
0
LWPOLYLINE
5
120
100
AcDbEntity
8
0
100
AcDbPolyline
90
4
70
1
43
0.0
10
14.868166684001141
20
14.755145323457796
42
0.99999999999999989
10
14.868166684001135
20
20.244854676542197
10
-15.131833315998859
20
20.244854676542197
42
0.99999999999999989
10
-15.131833315998859
20
14.755145323457795
0
LWPOLYLINE
5
121
100
AcDbEntity
8
0
100
AcDbPolyline
90
4
70
1
43
0.0
10
-15.131833315998859
20
-15.755145323457818
10
14.868166684001141
20
-15.755145323457818
42
-0.99999999999999989
10
14.868166684001141
20
-21.244854676542204
10
-15.131833315998859
20
-21.244854676542204
42
-0.99999999999999989
0
LWPOLYLINE
5
122
100
AcDbEntity
8
0
100
AcDbPolyline
90
4
70
1
43
0.0
10
14.868166684001141
20
-9.2448546765422019
42
0.99999999999999989
10
14.868166684001141
20
-3.7551453234578136
10
-15.131833315998859
20
-3.7551453234578132
42
0.99999999999999989
10
-15.131833315998859
20
-9.2448546765422019
0
LWPOLYLINE
5
123
100
AcDbEntity
8
0
100
AcDbPolyline
90
4
70
1
43
0.0
10
74.861203479359958
20
14.755145323457796
10
44.861203479359936
20
14.755145323457795
42
-0.99999999999999989
10
44.861203479359951
20
20.244854676542197
10
74.861203479359958
20
20.244854676542197
42
-0.99999999999999989
0
LWPOLYLINE
5
124
100
AcDbEntity
8
0
100
AcDbPolyline
90
4
70
1
43
0.0
10
-45.18763707817552
20
-9.2448546765422019
42
0.99999999999999989
10
-45.18763707817552
20
-3.7551453234578136
10
-75.187637078175527
20
-3.7551453234578132
42
0.99999999999999989
10
-75.187637078175527
20
-9.2448546765422019
0
LWPOLYLINE
5
125
100
AcDbEntity
8
0
100
AcDbPolyline
90
4
70
1
43
0.0
10
-45.18763707817552
20
14.755145323457796
42
0.99999999999999989
10
-45.18763707817552
20
20.244854676542197
10
-75.187637078175527
20
20.244854676542197
42
0.99999999999999989
10
-75.187637078175527
20
14.755145323457795
0
ENDSEC
0
SECTION
2
OBJECTS
0
DICTIONARY
5
C
100
AcDbDictionary
3
ACAD_GROUP
350
D
3
ACAD_MLINESTYLE
350
17
0
DICTIONARY
5
D
100
AcDbDictionary
0
DICTIONARY
5
1A
330
C
100
AcDbDictionary
0
DICTIONARY
5
17
100
AcDbDictionary
0
ENDSEC
0
EOF
