0
SECTION
2
HEADER
9
$INSUNITS
70
4
9
$ACADVER
1
AC1014
9
$HANDSEED
5
FFFF
0
ENDSEC
0
SECTION
2
TABLES
0
TABLE
2
VPORT
5
8
100
AcDbSymbolTable
0
ENDTAB
0
TABLE
2
LTYPE
5
5
100
AcDbSymbolTable
0
LTYPE
5
14
100
AcDbSymbolTableRecord
100
AcDbLinetypeTableRecord
2
BYBLOCK
70
0
0
LTYPE
5
15
100
AcDbSymbolTableRecord
100
AcDbLinetypeTableRecord
2
BYLAYER
70
0
0
LTYPE
5
16
100
AcDbSymbolTableRecord
100
AcDbLinetypeTableRecord
2
DASHED
70
0
3
Dashed __ __ __ __ __ __ __ __ __ __ __ __ __ _
72
65
73
2
40
0.75
49
0.5
74
0
49
-0.25
74
0
0
ENDTAB
0
TABLE
2
LAYER
5
2
100
AcDbSymbolTable
70
2
0
LAYER
5
50
100
AcDbSymbolTableRecord
100
AcDbLayerTableRecord
2
0
70
0
62
7
6
CONTINUOUS
0
ENDTAB
0
TABLE
2
STYLE
5
3
100
AcDbSymbolTable
70
1
0
STYLE
5
11
100
AcDbSymbolTableRecord
100
AcDbTextStyleTableRecord
2
STANDARD
70
0
0
ENDTAB
0
TABLE
2
VIEW
5
6
100
AcDbSymbolTable
70
0
0
ENDTAB
0
TABLE
2
UCS
5
7
100
AcDbSymbolTable
70
0
0
ENDTAB
0
TABLE
2
APPID
5
9
100
AcDbSymbolTable
70
2
0
APPID
5
12
100
AcDbSymbolTableRecord
100
AcDbRegAppTableRecord
2
ACAD
70
0
0
ENDTAB
0
TABLE
2
DIMSTYLE
5
A
100
AcDbSymbolTable
70
1
0
ENDTAB
0
TABLE
2
BLOCK_RECORD
5
1
100
AcDbSymbolTable
70
1
0
BLOCK_RECORD
5
1F
100
AcDbSymbolTableRecord
100
AcDbBlockTableRecord
2
*MODEL_SPACE
0
BLOCK_RECORD
5
1B
100
AcDbSymbolTableRecord
100
AcDbBlockTableRecord
2
*PAPER_SPACE
0
ENDTAB
0
ENDSEC
0
SECTION
2
BLOCKS
0
BLOCK
5
20
100
AcDbEntity
100
AcDbBlockBegin
2
*MODEL_SPACE
0
ENDBLK
5
21
100
AcDbEntity
100
AcDbBlockEnd
0
BLOCK
5
1C
100
AcDbEntity
100
AcDbBlockBegin
2
*PAPER_SPACE
0
ENDBLK
5
1D
100
AcDbEntity
100
AcDbBlockEnd
0
ENDSEC
0
SECTION
2
ENTITIES
0
LWPOLYLINE
5
100
100
AcDbEntity
8
0
100
AcDbPolyline
90
4
70
1
43
0.0
10
25
20
17.249999999999979
42
0.99999999999999989
10
25.000000000000007
20
22.749999999999979
10
-25
20
22.749999999999979
42
0.99999999999999989
10
-25
20
17.249999999999979
0
LWPOLYLINE
5
101
100
AcDbEntity
8
0
100
AcDbPolyline
90
4
70
1
43
0.0
10
-25
20
-17.249999999999979
10
25.000000000000007
20
-17.249999999999979
42
-0.99999999999999989
10
25
20
-22.749999999999979
10
-25.000000000000007
20
-22.749999999999979
42
-0.99999999999999989
0
LWPOLYLINE
5
102
100
AcDbEntity
8
0
100
AcDbPolyline
90
4
70
1
43
0.0
10
-25
20
2.75
42
0.99999999999999989
10
-25
20
-2.75
10
25
20
-2.75
42
0.99999999999999989
10
25
20
2.7499999999999991
0
LWPOLYLINE
5
103
100
AcDbEntity
8
0
100
AcDbPolyline
90
4
70
1
43
0.0
10
-25
20
12.749999999999977
42
0.99999999999999989
10
-25
20
7.2499999999999787
10
25
20
7.2499999999999778
42
0.99999999999999989
10
25
20
12.749999999999977
0
LWPOLYLINE
5
104
100
AcDbEntity
8
0
100
AcDbPolyline
90
4
70
1
43
0.0
10
-25
20
-7.2499999999999787
10
25
20
-7.2499999999999787
42
-0.99999999999999989
10
25
20
-12.749999999999977
10
-25
20
-12.749999999999977
42
-0.99999999999999989
0
LWPOLYLINE
5
105
100
AcDbEntity
8
0
100
AcDbPolyline
90
12
70
1
43
0.0
10
-45.000000000000014
20
-26.000000000000014
10
44.999999999999986
20
-25.999999999999979
10
45
20
25.999999999999979
10
34.999999999999993
20
26.000001341104515
10
34.999999999999993
20
30.000001400709159
10
14.999999999999991
20
30.000001400709159
10
14.999999999999989
20
26.000001341104515
10
-5.0000000000000107
20
26.000001341104515
10
-5.0000000000000098
20
30.000001400709159
10
-25.000000000000007
20
30.000001400709159
10
-25.000000000000007
20
26.000001341104515
10
-45.000000000000014
20
25.999999999999979
0
LWPOLYLINE
5
106
100
AcDbEntity
8
0
100
AcDbPolyline
90
12
70
1
43
0.0
10
35.000000000000014
20
30.000001400709159
10
15.000000000000016
20
30.000001400709159
10
15.000000000000011
20
26.000001341104515
10
-4.9999999999999822
20
25.999999999999979
10
-4.9999999999999858
20
30.000001400709159
10
-24.999999999999986
20
30.000001400709159
10
-24.999999999999986
20
26.000001341104515
10
-45.000000000000014
20
25.999999999999979
10
-45.000000000000007
20
-26.000000000000014
10
44.999999999999993
20
-25.999999999999979
10
45
20
25.999999999999979
10
35.000000000000014
20
26.000001341104515
0
LWPOLYLINE
5
107
100
AcDbEntity
8
0
100
AcDbPolyline
90
4
70
1
43
0.0
10
-25
20
-7.2499999999999778
42
0.99999999999999989
10
-25
20
-12.749999999999977
10
25
20
-12.749999999999977
42
0.99999999999999989
10
25
20
-7.2499999999999787
0
LWPOLYLINE
5
108
100
AcDbEntity
8
0
100
AcDbPolyline
90
4
70
1
43
0.0
10
25
20
7.2499999999999778
10
-25
20
7.2499999999999787
42
-0.99999999999999989
10
-25
20
12.749999999999977
10
25
20
12.749999999999977
42
-0.99999999999999989
0
LWPOLYLINE
5
109
100
AcDbEntity
8
0
100
AcDbPolyline
90
4
70
1
43
0.0
10
25
20
-2.75
10
-25
20
-2.75
42
-0.99999999999999989
10
-25
20
2.75
10
25
20
2.75
42
-0.99999999999999989
0
LWPOLYLINE
5
110
100
AcDbEntity
8
0
100
AcDbPolyline
90
4
70
1
43
0.0
10
-25
20
-17.249999999999979
42
0.99999999999999989
10
-25.000000000000007
20
-22.749999999999979
10
25
20
-22.749999999999979
42
0.99999999999999989
10
25.000000000000007
20
-17.249999999999979
0
LWPOLYLINE
5
111
100
AcDbEntity
8
0
100
AcDbPolyline
90
4
70
1
43
0.0
10
-25
20
22.749999999999979
10
25.000000000000007
20
22.749999999999979
42
-0.99999999999999989
10
25
20
17.249999999999979
10
-25.000000000000007
20
17.249999999999979
42
-0.99999999999999989
0
ENDSEC
0
SECTION
2
OBJECTS
0
DICTIONARY
5
C
100
AcDbDictionary
3
ACAD_GROUP
350
D
3
ACAD_MLINESTYLE
350
17
0
DICTIONARY
5
D
100
AcDbDictionary
0
DICTIONARY
5
1A
330
C
100
AcDbDictionary
0
DICTIONARY
5
17
100
AcDbDictionary
0
ENDSEC
0
EOF
