0
SECTION
2
HEADER
9
$INSUNITS
70
4
9
$ACADVER
1
AC1014
9
$HANDSEED
5
FFFF
0
ENDSEC
0
SECTION
2
TABLES
0
TABLE
2
VPORT
5
8
100
AcDbSymbolTable
0
ENDTAB
0
TABLE
2
LTYPE
5
5
100
AcDbSymbolTable
0
LTYPE
5
14
100
AcDbSymbolTableRecord
100
AcDbLinetypeTableRecord
2
BYBLOCK
70
0
0
LTYPE
5
15
100
AcDbSymbolTableRecord
100
AcDbLinetypeTableRecord
2
BYLAYER
70
0
0
LTYPE
5
16
100
AcDbSymbolTableRecord
100
AcDbLinetypeTableRecord
2
DASHED
70
0
3
Dashed __ __ __ __ __ __ __ __ __ __ __ __ __ _
72
65
73
2
40
0.75
49
0.5
74
0
49
-0.25
74
0
0
ENDTAB
0
TABLE
2
LAYER
5
2
100
AcDbSymbolTable
70
2
0
LAYER
5
50
100
AcDbSymbolTableRecord
100
AcDbLayerTableRecord
2
0
70
0
62
7
6
CONTINUOUS
0
ENDTAB
0
TABLE
2
STYLE
5
3
100
AcDbSymbolTable
70
1
0
STYLE
5
11
100
AcDbSymbolTableRecord
100
AcDbTextStyleTableRecord
2
STANDARD
70
0
0
ENDTAB
0
TABLE
2
VIEW
5
6
100
AcDbSymbolTable
70
0
0
ENDTAB
0
TABLE
2
UCS
5
7
100
AcDbSymbolTable
70
0
0
ENDTAB
0
TABLE
2
APPID
5
9
100
AcDbSymbolTable
70
2
0
APPID
5
12
100
AcDbSymbolTableRecord
100
AcDbRegAppTableRecord
2
ACAD
70
0
0
ENDTAB
0
TABLE
2
DIMSTYLE
5
A
100
AcDbSymbolTable
70
1
0
ENDTAB
0
TABLE
2
BLOCK_RECORD
5
1
100
AcDbSymbolTable
70
1
0
BLOCK_RECORD
5
1F
100
AcDbSymbolTableRecord
100
AcDbBlockTableRecord
2
*MODEL_SPACE
0
BLOCK_RECORD
5
1B
100
AcDbSymbolTableRecord
100
AcDbBlockTableRecord
2
*PAPER_SPACE
0
ENDTAB
0
ENDSEC
0
SECTION
2
BLOCKS
0
BLOCK
5
20
100
AcDbEntity
100
AcDbBlockBegin
2
*MODEL_SPACE
0
ENDBLK
5
21
100
AcDbEntity
100
AcDbBlockEnd
0
BLOCK
5
1C
100
AcDbEntity
100
AcDbBlockBegin
2
*PAPER_SPACE
0
ENDBLK
5
1D
100
AcDbEntity
100
AcDbBlockEnd
0
ENDSEC
0
SECTION
2
ENTITIES
0
LWPOLYLINE
5
100
100
AcDbEntity
8
0
100
AcDbPolyline
90
28
70
1
43
0.0
10
-117.00000000000006
20
-26.000000000000011
10
117
20
-26
10
117
20
26
10
110.0000016238684
20
26
10
110.0000016238684
20
30.00000140070917
10
103.00000151956027
20
30.00000140070917
10
103.00000151956027
20
26.000001341104539
10
83.000001221537048
20
26.000001341104539
10
83.000001221537048
20
30.00000140070917
10
63.000000923513824
20
30.00000140070917
10
63.000000923513824
20
26
10
43.0000006254906
20
25.999999999999996
10
43.0000006254906
20
30.00000140070917
10
23.000000327467376
20
30.00000140070917
10
23.000000327467376
20
25.999999999999996
10
3.000000029444152
20
25.999999999999996
10
3.000000029444152
20
30.00000140070917
10
-17.000000268579072
20
30.00000140070917
10
-17.000000268579072
20
25.999999999999996
10
-37.000000566602296
20
25.999999999999996
10
-37.000000566602296
20
30.00000140070917
10
-57.00000086462552
20
30.00000140070917
10
-57.00000086462552
20
25.999999999999996
10
-77.000001162648744
20
25.999999999999993
10
-77.000001162648744
20
30.00000140070917
10
-97.000001460671967
20
30.000001400709184
10
-97.000001460671967
20
25.999999999999993
10
-117.00000000000003
20
25.999999999999993
0
LWPOLYLINE
5
101
100
AcDbEntity
8
0
100
AcDbPolyline
90
4
70
1
43
0.0
10
89.993972705631009
20
-20.744854676542197
42
0.99999999999999989
10
89.993972705631009
20
-15.25514532345781
10
59.993972705631009
20
-15.255145323457809
42
0.99999999999999989
10
59.993972705631009
20
-20.744854676542197
0
LWPOLYLINE
5
102
100
AcDbEntity
8
0
100
AcDbPolyline
90
4
70
1
43
0.0
10
-14.645278390577197
20
-15.255145323457809
42
0.99999999999999989
10
-14.6452783905772
20
-20.744854676542197
10
15.354721609422803
20
-20.744854676542197
42
0.99999999999999989
10
15.354721609422803
20
-15.255145323457807
0
LWPOLYLINE
5
103
100
AcDbEntity
8
0
100
AcDbPolyline
90
4
70
1
43
0.0
10
-89.959637078175518
20
-15.755145323457818
10
-59.959637078175518
20
-15.755145323457818
42
-0.99999999999999989
10
-59.959637078175518
20
-21.244854676542204
10
-89.959637078175518
20
-21.244854676542204
42
-0.99999999999999989
0
LWPOLYLINE
5
104
100
AcDbEntity
8
0
100
AcDbPolyline
90
4
70
1
43
0.0
10
-89.959637078175518
20
20.244854676542197
10
-59.959637078175518
20
20.244854676542197
42
-0.99999999999999989
10
-59.959637078175518
20
14.755145323457796
10
-89.959637078175518
20
14.755145323457795
42
-0.99999999999999989
0
LWPOLYLINE
5
105
100
AcDbEntity
8
0
100
AcDbPolyline
90
4
70
1
43
0.0
10
-14.645278390577197
20
20.744854676542204
10
15.354721609422803
20
20.7448546765422
42
-0.99999999999999989
10
15.354721609422803
20
15.255145323457807
10
-14.645278390577197
20
15.255145323457802
42
-0.99999999999999989
0
LWPOLYLINE
5
106
100
AcDbEntity
8
0
100
AcDbPolyline
90
4
70
1
43
0.0
10
89.993972705631009
20
15.255145323457807
42
0.99999999999999989
10
89.993972705631009
20
20.7448546765422
10
59.993972705631009
20
20.744854676542204
42
0.99999999999999989
10
59.993972705631009
20
15.255145323457807
0
LWPOLYLINE
5
107
100
AcDbEntity
8
0
100
AcDbPolyline
90
4
70
1
43
0.0
10
89.993972705631009
20
-8.7448546765421966
42
0.99999999999999989
10
89.993972705631009
20
-3.2551453234578043
10
59.993972705631009
20
-3.2551453234578065
42
0.99999999999999989
10
59.993972705631009
20
-8.7448546765421948
0
LWPOLYLINE
5
108
100
AcDbEntity
8
0
100
AcDbPolyline
90
4
70
1
43
0.0
10
-14.645278390577197
20
-3.2551453234578065
42
0.99999999999999989
10
-14.645278390577197
20
-8.7448546765421948
10
15.354721609422803
20
-8.7448546765421966
42
0.99999999999999989
10
15.354721609422803
20
-3.2551453234578052
0
LWPOLYLINE
5
109
100
AcDbEntity
8
0
100
AcDbPolyline
90
4
70
1
43
0.0
10
-89.959637078175518
20
-3.7551453234578132
10
-59.959637078175518
20
-3.7551453234578136
42
-0.99999999999999989
10
-59.959637078175518
20
-9.2448546765422019
10
-89.959637078175518
20
-9.2448546765422019
42
-0.99999999999999989
0
LWPOLYLINE
5
110
100
AcDbEntity
8
0
100
AcDbPolyline
90
4
70
1
43
0.0
10
-89.959637078175518
20
8.2448546765421895
10
-59.959637078175518
20
8.2448546765421895
42
-0.99999999999999989
10
-59.959637078175518
20
2.7551453234577972
10
-89.959637078175518
20
2.7551453234577972
42
-0.99999999999999989
0
LWPOLYLINE
5
111
100
AcDbEntity
8
0
100
AcDbPolyline
90
4
70
1
43
0.0
10
15.354721609422803
20
3.2551453234578047
10
-14.645278390577197
20
3.2551453234578043
42
-0.99999999999999989
10
-14.645278390577197
20
8.7448546765421966
10
15.354721609422803
20
8.7448546765421966
42
-0.99999999999999989
0
LWPOLYLINE
5
112
100
AcDbEntity
8
0
100
AcDbPolyline
90
4
70
1
43
0.0
10
89.993972705631009
20
3.2551453234578047
42
0.99999999999999989
10
89.993972705631009
20
8.7448546765421966
10
59.993972705631009
20
8.7448546765421966
42
0.99999999999999989
10
59.993972705631009
20
3.2551453234578061
0
LWPOLYLINE
5
113
100
AcDbEntity
8
0
100
AcDbPolyline
90
28
70
1
43
0.0
10
110.0000016238684
20
30.00000140070917
10
110.0000016238684
20
26
10
117
20
26
10
117
20
-26
10
-117.00000000000004
20
-26.000000000000011
10
-117.00000000000003
20
25.999999999999993
10
-97.000001460671967
20
25.999999999999993
10
-97.000001460671967
20
30.000001400709184
10
-77.000001162648744
20
30.00000140070917
10
-77.000001162648744
20
25.999999999999993
10
-57.00000086462552
20
25.999999999999996
10
-57.00000086462552
20
30.00000140070917
10
-37.000000566602296
20
30.00000140070917
10
-37.000000566602296
20
25.999999999999996
10
-17.000000268579072
20
25.999999999999996
10
-17.000000268579072
20
30.00000140070917
10
3.000000029444152
20
30.00000140070917
10
3.000000029444152
20
25.999999999999996
10
23.000000327467376
20
25.999999999999996
10
23.000000327467376
20
30.00000140070917
10
43.0000006254906
20
30.00000140070917
10
43.0000006254906
20
25.999999999999996
10
63.000000923513824
20
26
10
63.000000923513824
20
30.00000140070917
10
83.000001221537048
20
30.00000140070917
10
83.000001221537048
20
26
10
103.00000151956027
20
26.000001341104539
10
103.00000151956027
20
30.00000140070917
0
LWPOLYLINE
5
114
100
AcDbEntity
8
0
100
AcDbPolyline
90
4
70
1
43
0.0
10
89.993972705631009
20
3.2551453234578047
42
0.99999999999999989
10
89.993972705631009
20
8.7448546765421966
10
59.993972705631009
20
8.7448546765421966
42
0.99999999999999989
10
59.993972705631009
20
3.2551453234578043
0
LWPOLYLINE
5
115
100
AcDbEntity
8
0
100
AcDbPolyline
90
4
70
1
43
0.0
10
-14.645278390577197
20
3.2551453234578061
10
15.354721609422803
20
3.2551453234578047
42
0.99999999999999989
10
15.354721609422803
20
8.7448546765421966
10
-14.645278390577197
20
8.7448546765421966
42
0.99999999999999989
0
LWPOLYLINE
5
116
100
AcDbEntity
8
0
100
AcDbPolyline
90
4
70
1
43
0.0
10
-59.959637078175518
20
8.2448546765421895
10
-89.959637078175518
20
8.2448546765421895
42
0.99999999999999989
10
-89.959637078175518
20
2.7551453234577972
10
-59.959637078175518
20
2.7551453234577972
42
0.99999999999999989
0
LWPOLYLINE
5
117
100
AcDbEntity
8
0
100
AcDbPolyline
90
4
70
1
43
0.0
10
-59.959637078175518
20
-3.7551453234578132
10
-89.959637078175518
20
-3.7551453234578132
42
0.99999999999999989
10
-89.959637078175518
20
-9.2448546765422019
10
-59.959637078175518
20
-9.2448546765422019
42
0.99999999999999989
0
LWPOLYLINE
5
118
100
AcDbEntity
8
0
100
AcDbPolyline
90
4
70
1
43
0.0
10
-14.645278390577197
20
-3.2551453234578065
42
0.99999999999999989
10
-14.645278390577197
20
-8.7448546765421948
10
15.354721609422803
20
-8.7448546765421984
42
0.99999999999999989
10
15.354721609422803
20
-3.2551453234578043
0
LWPOLYLINE
5
119
100
AcDbEntity
8
0
100
AcDbPolyline
90
4
70
1
43
0.0
10
89.993972705631009
20
-8.7448546765421966
42
0.99999999999999989
10
89.993972705631009
20
-3.2551453234578043
10
59.993972705631009
20
-3.2551453234578065
42
0.99999999999999989
10
59.993972705631009
20
-8.7448546765421948
0
LWPOLYLINE
5
120
100
AcDbEntity
8
0
100
AcDbPolyline
90
4
70
1
43
0.0
10
89.993972705631009
20
15.255145323457807
42
0.99999999999999989
10
89.993972705631009
20
20.7448546765422
10
59.993972705631009
20
20.744854676542204
42
0.99999999999999989
10
59.993972705631009
20
15.255145323457802
0
LWPOLYLINE
5
121
100
AcDbEntity
8
0
100
AcDbPolyline
90
4
70
1
43
0.0
10
15.354721609422803
20
20.744854676542204
10
-14.645278390577197
20
20.744854676542204
42
0.99999999999999989
10
-14.645278390577197
20
15.255145323457802
10
15.354721609422803
20
15.255145323457807
42
0.99999999999999989
0
LWPOLYLINE
5
122
100
AcDbEntity
8
0
100
AcDbPolyline
90
4
70
1
43
0.0
10
-59.959637078175518
20
20.244854676542197
10
-89.959637078175518
20
20.244854676542197
42
0.99999999999999989
10
-89.959637078175518
20
14.755145323457795
10
-59.959637078175518
20
14.755145323457796
42
0.99999999999999989
0
LWPOLYLINE
5
123
100
AcDbEntity
8
0
100
AcDbPolyline
90
4
70
1
43
0.0
10
-59.959637078175518
20
-15.755145323457814
10
-89.959637078175518
20
-15.755145323457816
42
0.99999999999999989
10
-89.959637078175518
20
-21.244854676542204
10
-59.959637078175518
20
-21.244854676542204
42
0.99999999999999989
0
LWPOLYLINE
5
124
100
AcDbEntity
8
0
100
AcDbPolyline
90
4
70
1
43
0.0
10
-14.645278390577197
20
-15.255145323457809
42
0.99999999999999989
10
-14.645278390577197
20
-20.744854676542197
10
15.354721609422803
20
-20.744854676542197
42
0.99999999999999989
10
15.354721609422803
20
-15.25514532345781
0
LWPOLYLINE
5
125
100
AcDbEntity
8
0
100
AcDbPolyline
90
4
70
1
43
0.0
10
89.993972705631009
20
-20.744854676542197
42
0.99999999999999989
10
89.993972705631009
20
-15.25514532345781
10
59.993972705631009
20
-15.255145323457809
42
0.99999999999999989
10
59.993972705631009
20
-20.744854676542197
0
ENDSEC
0
SECTION
2
OBJECTS
0
DICTIONARY
5
C
100
AcDbDictionary
3
ACAD_GROUP
350
D
3
ACAD_MLINESTYLE
350
17
0
DICTIONARY
5
D
100
AcDbDictionary
0
DICTIONARY
5
1A
330
C
100
AcDbDictionary
0
DICTIONARY
5
17
100
AcDbDictionary
0
ENDSEC
0
EOF
