0
SECTION
2
HEADER
9
$INSUNITS
70
4
9
$ACADVER
1
AC1014
9
$HANDSEED
5
FFFF
0
ENDSEC
0
SECTION
2
TABLES
0
TABLE
2
VPORT
5
8
100
AcDbSymbolTable
0
ENDTAB
0
TABLE
2
LTYPE
5
5
100
AcDbSymbolTable
0
LTYPE
5
14
100
AcDbSymbolTableRecord
100
AcDbLinetypeTableRecord
2
BYBLOCK
70
0
0
LTYPE
5
15
100
AcDbSymbolTableRecord
100
AcDbLinetypeTableRecord
2
BYLAYER
70
0
0
LTYPE
5
16
100
AcDbSymbolTableRecord
100
AcDbLinetypeTableRecord
2
DASHED
70
0
3
Dashed __ __ __ __ __ __ __ __ __ __ __ __ __ _
72
65
73
2
40
0.75
49
0.5
74
0
49
-0.25
74
0
0
ENDTAB
0
TABLE
2
LAYER
5
2
100
AcDbSymbolTable
70
2
0
LAYER
5
50
100
AcDbSymbolTableRecord
100
AcDbLayerTableRecord
2
0
70
0
62
7
6
CONTINUOUS
0
ENDTAB
0
TABLE
2
STYLE
5
3
100
AcDbSymbolTable
70
1
0
STYLE
5
11
100
AcDbSymbolTableRecord
100
AcDbTextStyleTableRecord
2
STANDARD
70
0
0
ENDTAB
0
TABLE
2
VIEW
5
6
100
AcDbSymbolTable
70
0
0
ENDTAB
0
TABLE
2
UCS
5
7
100
AcDbSymbolTable
70
0
0
ENDTAB
0
TABLE
2
APPID
5
9
100
AcDbSymbolTable
70
2
0
APPID
5
12
100
AcDbSymbolTableRecord
100
AcDbRegAppTableRecord
2
ACAD
70
0
0
ENDTAB
0
TABLE
2
DIMSTYLE
5
A
100
AcDbSymbolTable
70
1
0
ENDTAB
0
TABLE
2
BLOCK_RECORD
5
1
100
AcDbSymbolTable
70
1
0
BLOCK_RECORD
5
1F
100
AcDbSymbolTableRecord
100
AcDbBlockTableRecord
2
*MODEL_SPACE
0
BLOCK_RECORD
5
1B
100
AcDbSymbolTableRecord
100
AcDbBlockTableRecord
2
*PAPER_SPACE
0
ENDTAB
0
ENDSEC
0
SECTION
2
BLOCKS
0
BLOCK
5
20
100
AcDbEntity
100
AcDbBlockBegin
2
*MODEL_SPACE
0
ENDBLK
5
21
100
AcDbEntity
100
AcDbBlockEnd
0
BLOCK
5
1C
100
AcDbEntity
100
AcDbBlockBegin
2
*PAPER_SPACE
0
ENDBLK
5
1D
100
AcDbEntity
100
AcDbBlockEnd
0
ENDSEC
0
SECTION
2
ENTITIES
0
CIRCLE
5
100
100
AcDbEntity
8
0
100
AcDbCircle
10
168.09999999998357
20
-48.699843713897906
30
0
40
1.7500000000000071
210
0
220
0
230
1
0
CIRCLE
5
101
100
AcDbEntity
8
0
100
AcDbCircle
10
144.59999999998354
20
-48.699843713897899
30
0
40
1.7500000000000071
210
0
220
0
230
1
0
CIRCLE
5
102
100
AcDbEntity
8
0
100
AcDbCircle
10
123.00000000000153
20
-89.444843713903623
30
0
40
4.2500000000000071
210
0
220
0
230
1
0
CIRCLE
5
103
100
AcDbEntity
8
0
100
AcDbCircle
10
143.00000000000023
20
24.555156286096519
30
0
40
4.2500000000000071
210
0
220
0
230
1
0
CIRCLE
5
104
100
AcDbEntity
8
0
100
AcDbCircle
10
30.999999999998515
20
-89.444843713904163
30
0
40
4.2499999999999982
210
0
220
0
230
1
0
CIRCLE
5
105
100
AcDbEntity
8
0
100
AcDbCircle
10
143.00000000000153
20
-89.444843713903381
30
0
40
4.2500000000000071
210
0
220
0
230
1
0
CIRCLE
5
106
100
AcDbEntity
8
0
100
AcDbCircle
10
10.999999999998513
20
24.555156286095755
30
0
40
4.25
210
0
220
0
230
1
0
CIRCLE
5
107
100
AcDbEntity
8
0
100
AcDbCircle
10
10.999999999998531
20
-89.444843713904163
30
0
40
4.25
210
0
220
0
230
1
0
LWPOLYLINE
5
108
100
AcDbEntity
8
0
100
AcDbPolyline
90
102
70
1
43
0.0
10
115.76749778375445
20
169.55515628609575
10
115.76749778375445
20
165.55515628609578
10
106.99999999999866
20
165.55515628609578
10
95.76749778375445
20
165.55515628609578
10
95.76749778375445
20
169.55515628609575
10
85.999999999998579
20
169.55515628609575
10
85.999999999998593
20
155.17316678912104
42
-0.33308888799348679
10
82.999999999998636
20
143.93347668117943
10
82.999999999998622
20
129.97826307504224
10
70.999999999998607
20
129.97826307504224
10
70.999999999998636
20
143.93347668117943
42
-0.31657387453337954
10
67.799999999998562
20
154.62924151588362
10
67.799999999998562
20
169.55515628609575
10
58.167497705086234
20
169.55515628609575
10
58.167497705086234
20
165.55515628609578
10
46.999999999998501
20
165.55515628609578
10
38.167497705086248
20
165.55515628609578
10
38.167497705086248
20
169.55515628609575
10
25.999999999999197
20
169.55515628609575
10
18.603901908180845
20
162.15905819427732
10
21.467684371986493
20
159.29527573047167
10
7.2548378594026559
20
145.08242921788784
10
4.3910553955970899
20
147.94621168169337
10
-9.6803697607493575
20
133.87478652534674
10
-6.8165872969438919
20
131.01100406154129
10
-21.029433809527735
20
116.79815754895745
10
-23.893216273333103
20
119.66194001276281
10
-39.949999475229411
20
103.60515681086633
10
-35.949999999999996
20
103.60515681086636
10
-35.949999999999996
20
83.505156512843115
10
-40
20
83.505156512843115
10
-40
20
63.605156214819907
10
-35.949999999999996
20
63.6051562148199
10
-35.949999999999996
20
43.505155320750227
10
-40
20
43.50515532075022
10
-40
20
23.605155618773459
10
-35.949999999999996
20
23.605155618773452
10
-35.949999999999996
20
3.5051562860957208
10
-40
20
3.5051562860957297
10
-40
20
-16.394844977273006
10
-35.949999999999996
20
-16.394844977272996
10
-35.949999999999996
20
-36.494844679249773
10
-40
20
-36.494844679249766
10
-40
20
-56.394845573319458
10
-35.949999999999996
20
-56.394845573319444
10
-35.949999999999996
20
-76.494843713904274
10
-40
20
-76.494843713904274
10
-40
20
-100.44484371390425
10
-20.050001460671936
20
-100.44484371390425
10
-20.050001460671936
20
-96.394843713904251
10
0.049998837351283854
20
-96.394843713904251
10
0.049998837351283854
20
-100.44484371390425
10
19.949999135374512
20
-100.44484371390425
10
19.949999135374512
20
-96.394843713904251
10
40.04999943339773
20
-96.394843713904251
10
40.049999433397723
20
-100.44484371390425
10
59.949999731420959
20
-100.44484371390425
10
59.949999731420959
20
-96.394843713904251
10
80.050000029444192
20
-96.394843713904251
10
80.050000029444206
20
-100.44484371390425
10
99.950000327467421
20
-100.44484371390425
10
99.950000327467393
20
-96.394843713904251
10
120.05000062549064
20
-96.394843713904251
10
120.05000062549065
20
-100.44484371390425
10
139.95000092351384
20
-100.44484371390425
10
139.95000092351384
20
-96.394843713904251
10
160.05000122153706
20
-96.394843713904251
10
160.05000122153706
20
-100.44484371390425
10
179.95000151956032
20
-100.44484371390425
10
179.95000151956032
20
-96.394843713904251
10
187.05000162386841
20
-96.394843713904251
10
187.05000162386847
20
-100.44484371390425
10
194.00000000000003
20
-100.44484371390425
10
194.00000000000003
20
-76.494843713904231
10
189.95000000000002
20
-76.494843713904231
10
189.95000000000002
20
-56.394845573319394
10
194.00000000000003
20
-56.394845573319394
10
194.00000000000003
20
-36.494844679249717
10
189.95000000000002
20
-36.494844679249717
10
189.95000000000002
20
-16.394844977272946
10
194.00000000000003
20
-16.394844977272953
10
194.00000000000003
20
3.505156286095783
10
189.95000000000002
20
3.5051562860957741
10
189.95000000000002
20
23.605155618773502
10
194.00000000000003
20
23.605155618773477
10
194.00000000000003
20
43.505155320750276
10
189.95000000000002
20
43.505155320750283
10
189.95000000000002
20
63.605156214819949
10
194.00000000000003
20
63.605156214819942
10
194.00000000000003
20
83.505156512843186
10
189.95000000000002
20
83.505156512843172
10
189.95000000000002
20
103.6051568108664
10
193.94999947522939
20
103.6051568108664
10
177.89321627333319
20
119.66194001276281
10
175.02943380952746
20
116.79815754895719
10
160.81658729694382
20
131.0110040615412
10
163.68036976074944
20
133.87478652534674
10
149.60894460440295
20
147.94621168169337
10
146.74516214059742
20
145.08242921788789
10
132.53231562801375
20
159.2952757304719
10
135.39609809181923
20
162.15905819427724
10
128.00000000000082
20
169.55515628609575
0
CIRCLE
5
109
100
AcDbEntity
8
0
100
AcDbCircle
10
106.99999999999866
20
161.55515628609606
30
0
40
3.9999999999997016
210
0
220
0
230
1
0
CIRCLE
5
110
100
AcDbEntity
8
0
100
AcDbCircle
10
46.999999999998501
20
161.55515628609572
30
0
40
4.0000000000000568
210
0
220
0
230
1
0
LWPOLYLINE
5
111
100
AcDbEntity
8
0
100
AcDbPolyline
90
4
70
1
43
0.0
10
77.000000000000014
20
-44.944843713903559
10
77.000000000000014
20
-64.944843713903552
10
73
20
-64.944843713903552
10
73
20
-44.944843713903559
0
LWPOLYLINE
5
112
100
AcDbEntity
8
0
100
AcDbPolyline
90
4
70
1
43
0.0
10
85.5
20
-77.444843713903552
10
105.5
20
-77.444843713903552
10
105.5
20
-81.444843713903566
10
85.5
20
-81.444843713903566
0
LWPOLYLINE
5
113
100
AcDbEntity
8
0
100
AcDbPolyline
90
4
70
1
43
0.0
10
185.5
20
16.555156286096455
10
185.5
20
12.555156286096453
10
165.5
20
12.555156286096453
10
165.5
20
16.555156286096455
0
LWPOLYLINE
5
114
100
AcDbEntity
8
0
100
AcDbPolyline
90
4
70
1
43
0.0
10
125.5
20
16.555156286096455
10
145.5
20
16.555156286096455
10
145.5
20
12.555156286096453
10
125.5
20
12.555156286096453
0
LWPOLYLINE
5
115
100
AcDbEntity
8
0
100
AcDbPolyline
90
4
70
1
43
0.0
10
104.00000000000003
20
-64.944844011926776
10
99.999999940395384
20
-64.944844011926776
10
99.999999940395384
20
-44.944843713903559
10
104.00000000000003
20
-44.944843713903559
0
LWPOLYLINE
5
116
100
AcDbEntity
8
0
100
AcDbPolyline
90
4
70
1
43
0.0
10
77.000000000000014
20
0.055156286096442741
10
77.000000000000014
20
-19.944843713903559
10
73
20
-19.944843713903559
10
73
20
0.055156286096442741
0
LWPOLYLINE
5
117
100
AcDbEntity
8
0
100
AcDbPolyline
90
4
70
1
43
0.0
10
145.5
20
-77.444843713903552
10
145.5
20
-81.444843713903552
10
125.5
20
-81.444843713903552
10
125.5
20
-77.444843713903552
0
LWPOLYLINE
5
118
100
AcDbEntity
8
0
100
AcDbPolyline
90
4
70
1
43
0.0
10
165.5
20
-77.444843713903552
10
185.5
20
-77.444843713903552
10
185.5
20
-81.444843713903552
10
165.5
20
-81.444843713903552
0
LWPOLYLINE
5
119
100
AcDbEntity
8
0
100
AcDbPolyline
90
4
70
1
43
0.0
10
85.5
20
12.555156286096443
10
85.5
20
16.555156286096441
10
105.5
20
16.555156286096441
10
105.5
20
12.555156286096443
0
LWPOLYLINE
5
120
100
AcDbEntity
8
0
100
AcDbPolyline
90
4
70
1
43
0.0
10
104.00000000000003
20
0.055156584119666618
10
104.00000000000003
20
-19.944843713903559
10
99.999999940395384
20
-19.944843713903559
10
99.999999940395384
20
0.055156584119666618
0
LWPOLYLINE
5
121
100
AcDbEntity
8
0
100
AcDbPolyline
90
12
70
1
43
0.0
10
158.69596623945486
20
-41.199843713897863
10
158.69596623945486
20
-45.199806336232257
10
152.90403376051222
20
-45.199806336232257
10
152.90403376051222
20
-41.199843713897863
10
139.59600361712046
20
-41.199843713897863
10
139.59600361712046
20
-45.199843713897884
10
133.80399638284655
20
-45.199843713897877
10
133.80399638284655
20
-41.199843713897863
10
133.09999999998351
20
-41.199843713897863
10
133.09999999998351
20
-28.949843713879524
10
174.79999999998353
20
-28.949843713879524
10
174.79999999998353
20
-41.199843713897863
0
LWPOLYLINE
5
122
100
AcDbEntity
8
0
100
AcDbPolyline
90
12
70
1
43
0.0
10
152.90403376051222
20
-45.199806336232257
10
158.69596623945486
20
-45.199806336232257
10
158.69596623945486
20
-41.199843713897863
10
174.79999999998353
20
-41.199843713897863
10
174.79999999998353
20
-28.949843713879524
10
133.09999999998351
20
-28.949843713879524
10
133.09999999998351
20
-41.199843713897863
10
133.80399638284655
20
-41.199843713897863
10
133.80399638284655
20
-45.199843713897877
10
139.59600361712046
20
-45.199843713897884
10
139.59600361712046
20
-41.199843713897863
10
152.90403376051222
20
-41.199843713897863
0
CIRCLE
5
123
100
AcDbEntity
8
0
100
AcDbCircle
10
168.09999999998357
20
-48.699843713897906
30
0
40
1.7500000000000071
210
0
220
0
230
1
0
CIRCLE
5
124
100
AcDbEntity
8
0
100
AcDbCircle
10
144.59999999998354
20
-48.699843713897899
30
0
40
1.7500000000000071
210
0
220
0
230
1
0
LWPOLYLINE
5
125
100
AcDbEntity
8
0
100
AcDbPolyline
90
4
70
1
43
0.0
10
104.00000000000003
20
-19.944843713903559
10
104.00000000000003
20
0.055156584119666618
10
99.999999940395384
20
0.055156584119666618
10
99.999999940395384
20
-19.944843713903559
0
LWPOLYLINE
5
126
100
AcDbEntity
8
0
100
AcDbPolyline
90
4
70
1
43
0.0
10
85.5
20
16.555156286096441
10
85.5
20
12.555156286096443
10
105.5
20
12.555156286096443
10
105.5
20
16.555156286096441
0
LWPOLYLINE
5
127
100
AcDbEntity
8
0
100
AcDbPolyline
90
4
70
1
43
0.0
10
185.5
20
-77.444843713903552
10
165.5
20
-77.444843713903552
10
165.5
20
-81.444843713903552
10
185.5
20
-81.444843713903552
0
LWPOLYLINE
5
128
100
AcDbEntity
8
0
100
AcDbPolyline
90
4
70
1
43
0.0
10
145.5
20
-81.444843713903552
10
145.5
20
-77.444843713903552
10
125.5
20
-77.444843713903552
10
125.5
20
-81.444843713903552
0
LWPOLYLINE
5
129
100
AcDbEntity
8
0
100
AcDbPolyline
90
4
70
1
43
0.0
10
77.000000000000014
20
-19.944843713903559
10
77.000000000000014
20
0.055156286096442741
10
73
20
0.055156286096442741
10
73
20
-19.944843713903559
0
LWPOLYLINE
5
130
100
AcDbEntity
8
0
100
AcDbPolyline
90
4
70
1
43
0.0
10
99.999999940395384
20
-64.94484401192679
10
104.00000000000003
20
-64.94484401192679
10
104.00000000000003
20
-44.944843713903559
10
99.999999940395384
20
-44.944843713903559
0
LWPOLYLINE
5
131
100
AcDbEntity
8
0
100
AcDbPolyline
90
4
70
1
43
0.0
10
145.5
20
16.555156286096455
10
125.5
20
16.555156286096455
10
125.5
20
12.555156286096453
10
145.5
20
12.555156286096452
0
LWPOLYLINE
5
132
100
AcDbEntity
8
0
100
AcDbPolyline
90
4
70
1
43
0.0
10
185.5
20
12.555156286096453
10
185.5
20
16.555156286096455
10
165.5
20
16.555156286096455
10
165.5
20
12.555156286096453
0
LWPOLYLINE
5
133
100
AcDbEntity
8
0
100
AcDbPolyline
90
4
70
1
43
0.0
10
105.5
20
-77.444843713903566
10
85.5
20
-77.444843713903566
10
85.5
20
-81.444843713903566
10
105.5
20
-81.444843713903566
0
LWPOLYLINE
5
134
100
AcDbEntity
8
0
100
AcDbPolyline
90
4
70
1
43
0.0
10
77.000000000000014
20
-64.944843713903566
10
77.000000000000014
20
-44.944843713903559
10
73
20
-44.944843713903559
10
73
20
-64.944843713903566
0
CIRCLE
5
135
100
AcDbEntity
8
0
100
AcDbCircle
10
123.00000000000153
20
-89.444843713903623
30
0
40
4.2500000000000071
210
0
220
0
230
1
0
CIRCLE
5
136
100
AcDbEntity
8
0
100
AcDbCircle
10
106.99999999999866
20
161.55515628609606
30
0
40
3.9999999999997016
210
0
220
0
230
1
0
CIRCLE
5
137
100
AcDbEntity
8
0
100
AcDbCircle
10
143.00000000000023
20
24.555156286096519
30
0
40
4.2500000000000071
210
0
220
0
230
1
0
CIRCLE
5
138
100
AcDbEntity
8
0
100
AcDbCircle
10
30.999999999998515
20
-89.444843713904163
30
0
40
4.2499999999999982
210
0
220
0
230
1
0
CIRCLE
5
139
100
AcDbEntity
8
0
100
AcDbCircle
10
143.00000000000153
20
-89.444843713903381
30
0
40
4.2500000000000071
210
0
220
0
230
1
0
CIRCLE
5
140
100
AcDbEntity
8
0
100
AcDbCircle
10
46.999999999998501
20
161.55515628609572
30
0
40
4.0000000000000568
210
0
220
0
230
1
0
CIRCLE
5
141
100
AcDbEntity
8
0
100
AcDbCircle
10
10.999999999998513
20
24.555156286095755
30
0
40
4.25
210
0
220
0
230
1
0
CIRCLE
5
142
100
AcDbEntity
8
0
100
AcDbCircle
10
10.999999999998531
20
-89.444843713904163
30
0
40
4.25
210
0
220
0
230
1
0
LWPOLYLINE
5
143
100
AcDbEntity
8
0
100
AcDbPolyline
90
102
70
1
43
0.0
10
106.99999999999866
20
165.55515628609578
10
115.76749778375445
20
165.55515628609578
10
115.76749778375445
20
169.55515628609575
10
128.00000000000082
20
169.55515628609575
10
135.39609809181923
20
162.15905819427724
10
132.53231562801375
20
159.29527573047187
10
146.74516214059744
20
145.08242921788792
10
149.60894460440295
20
147.94621168169337
10
163.68036976074944
20
133.87478652534671
10
160.81658729694382
20
131.0110040615412
10
175.02943380952746
20
116.79815754895719
10
177.89321627333319
20
119.66194001276284
10
193.94999947522939
20
103.60515681086639
10
189.95000000000002
20
103.6051568108664
10
189.95000000000002
20
83.505156512843172
10
194.00000000000003
20
83.505156512843186
10
194.00000000000003
20
63.605156214819942
10
189.95000000000002
20
63.605156214819942
10
189.95000000000002
20
43.505155320750283
10
194.00000000000003
20
43.505155320750276
10
194.00000000000003
20
23.605155618773477
10
189.95000000000002
20
23.605155618773502
10
189.95000000000002
20
3.5051562860957741
10
194.00000000000003
20
3.5051562860957826
10
194.00000000000003
20
-16.394844977272953
10
189.95000000000002
20
-16.394844977272946
10
189.95000000000002
20
-36.494844679249717
10
194.00000000000003
20
-36.494844679249717
10
194.00000000000003
20
-56.394845573319401
10
189.95000000000002
20
-56.394845573319401
10
189.95000000000002
20
-76.494843713904217
10
194.00000000000003
20
-76.494843713904217
10
194.00000000000003
20
-100.44484371390425
10
187.05000162386847
20
-100.44484371390425
10
187.05000162386838
20
-96.394843713904251
10
179.95000151956032
20
-96.394843713904251
10
179.95000151956032
20
-100.44484371390425
10
160.05000122153706
20
-100.44484371390425
10
160.05000122153706
20
-96.394843713904251
10
139.95000092351384
20
-96.394843713904251
10
139.95000092351384
20
-100.44484371390425
10
120.05000062549065
20
-100.44484371390425
10
120.05000062549064
20
-96.394843713904251
10
99.950000327467393
20
-96.394843713904251
10
99.950000327467421
20
-100.44484371390425
10
80.050000029444206
20
-100.44484371390425
10
80.050000029444192
20
-96.394843713904251
10
59.949999731420959
20
-96.394843713904251
10
59.949999731420945
20
-100.44484371390425
10
40.049999433397723
20
-100.44484371390425
10
40.049999433397744
20
-96.394843713904251
10
19.949999135374512
20
-96.394843713904251
10
19.949999135374505
20
-100.44484371390425
10
0.049998837351283854
20
-100.44484371390425
10
0.049998837351284228
20
-96.394843713904251
10
-20.050001460671943
20
-96.394843713904251
10
-20.050001460671943
20
-100.44484371390425
10
-40
20
-100.44484371390425
10
-40
20
-76.49484371390426
10
-35.949999999999996
20
-76.494843713904288
10
-35.950000000000003
20
-56.394845573319436
10
-40
20
-56.394845573319458
10
-40
20
-36.494844679249766
10
-35.949999999999996
20
-36.494844679249773
10
-35.950000000000003
20
-16.394844977272996
10
-40
20
-16.394844977273006
10
-40
20
3.5051562860957297
10
-35.949999999999996
20
3.5051562860957204
10
-35.950000000000003
20
23.605155618773452
10
-40
20
23.605155618773459
10
-40
20
43.50515532075022
10
-35.950000000000003
20
43.505155320750227
10
-35.950000000000003
20
63.6051562148199
10
-39.999999999999993
20
63.605156214819907
10
-40
20
83.505156512843115
10
-35.950000000000003
20
83.505156512843115
10
-35.950000000000003
20
103.60515681086636
10
-39.949999475229411
20
103.60515681086633
10
-23.893216273333124
20
119.66194001276284
10
-21.029433809527738
20
116.79815754895745
10
-6.8165872969438945
20
131.01100406154129
10
-9.6803697607493788
20
133.87478652534674
10
4.391055395597081
20
147.94621168169337
10
7.254837859402663
20
145.08242921788786
10
21.467684371986493
20
159.29527573047167
10
18.603901908180855
20
162.15905819427732
10
25.999999999999197
20
169.55515628609575
10
38.167497705086248
20
169.55515628609575
10
38.167497705086241
20
165.55515628609578
10
46.999999999998501
20
165.55515628609578
10
58.167497705086234
20
165.55515628609578
10
58.167497705086234
20
169.55515628609575
10
67.799999999998562
20
169.55515628609575
10
67.799999999998576
20
154.62924151588362
42
0.3165738745333776
10
70.999999999998636
20
143.93347668117937
10
70.999999999998607
20
129.97826307504224
10
82.999999999998622
20
129.97826307504224
10
82.999999999998622
20
143.93347668117943
42
0.33308888799348979
10
85.999999999998593
20
155.17316678912104
10
85.999999999998579
20
169.55515628609575
10
95.76749778375445
20
169.55515628609575
10
95.76749778375445
20
165.55515628609578
0
ENDSEC
0
SECTION
2
OBJECTS
0
DICTIONARY
5
C
100
AcDbDictionary
3
ACAD_GROUP
350
D
3
ACAD_MLINESTYLE
350
17
0
DICTIONARY
5
D
100
AcDbDictionary
0
DICTIONARY
5
1A
330
C
100
AcDbDictionary
0
DICTIONARY
5
17
100
AcDbDictionary
0
ENDSEC
0
EOF
