0
SECTION
2
HEADER
9
$INSUNITS
70
4
9
$ACADVER
1
AC1014
9
$HANDSEED
5
FFFF
0
ENDSEC
0
SECTION
2
TABLES
0
TABLE
2
VPORT
5
8
100
AcDbSymbolTable
0
ENDTAB
0
TABLE
2
LTYPE
5
5
100
AcDbSymbolTable
0
LTYPE
5
14
100
AcDbSymbolTableRecord
100
AcDbLinetypeTableRecord
2
BYBLOCK
70
0
0
LTYPE
5
15
100
AcDbSymbolTableRecord
100
AcDbLinetypeTableRecord
2
BYLAYER
70
0
0
LTYPE
5
16
100
AcDbSymbolTableRecord
100
AcDbLinetypeTableRecord
2
DASHED
70
0
3
Dashed __ __ __ __ __ __ __ __ __ __ __ __ __ _
72
65
73
2
40
0.75
49
0.5
74
0
49
-0.25
74
0
0
ENDTAB
0
TABLE
2
LAYER
5
2
100
AcDbSymbolTable
70
2
0
LAYER
5
50
100
AcDbSymbolTableRecord
100
AcDbLayerTableRecord
2
0
70
0
62
7
6
CONTINUOUS
0
ENDTAB
0
TABLE
2
STYLE
5
3
100
AcDbSymbolTable
70
1
0
STYLE
5
11
100
AcDbSymbolTableRecord
100
AcDbTextStyleTableRecord
2
STANDARD
70
0
0
ENDTAB
0
TABLE
2
VIEW
5
6
100
AcDbSymbolTable
70
0
0
ENDTAB
0
TABLE
2
UCS
5
7
100
AcDbSymbolTable
70
0
0
ENDTAB
0
TABLE
2
APPID
5
9
100
AcDbSymbolTable
70
2
0
APPID
5
12
100
AcDbSymbolTableRecord
100
AcDbRegAppTableRecord
2
ACAD
70
0
0
ENDTAB
0
TABLE
2
DIMSTYLE
5
A
100
AcDbSymbolTable
70
1
0
ENDTAB
0
TABLE
2
BLOCK_RECORD
5
1
100
AcDbSymbolTable
70
1
0
BLOCK_RECORD
5
1F
100
AcDbSymbolTableRecord
100
AcDbBlockTableRecord
2
*MODEL_SPACE
0
BLOCK_RECORD
5
1B
100
AcDbSymbolTableRecord
100
AcDbBlockTableRecord
2
*PAPER_SPACE
0
ENDTAB
0
ENDSEC
0
SECTION
2
BLOCKS
0
BLOCK
5
20
100
AcDbEntity
100
AcDbBlockBegin
2
*MODEL_SPACE
0
ENDBLK
5
21
100
AcDbEntity
100
AcDbBlockEnd
0
BLOCK
5
1C
100
AcDbEntity
100
AcDbBlockBegin
2
*PAPER_SPACE
0
ENDBLK
5
1D
100
AcDbEntity
100
AcDbBlockEnd
0
ENDSEC
0
SECTION
2
ENTITIES
0
CIRCLE
5
100
100
AcDbEntity
8
0
100
AcDbCircle
10
0.074095402435853122
20
-138.73701617042823
30
0
40
1.4999999999999929
210
-0
220
0
230
1
0
CIRCLE
5
101
100
AcDbEntity
8
0
100
AcDbCircle
10
-0.70570708698818763
20
80.293645548419903
30
0
40
1.5000000000000002
210
-0
220
0
230
1
0
CIRCLE
5
102
100
AcDbEntity
8
0
100
AcDbCircle
10
-45.217815151450992
20
55.647456163763266
30
0
40
1.4999999999999947
210
-0
220
0
230
1
0
LWPOLYLINE
5
103
100
AcDbEntity
8
0
100
AcDbPolyline
90
4
70
1
43
0.0
10
14.074095402435933
20
-135
10
14.074095402435933
20
-120
10
18.074095402435933
20
-120
10
18.074095402435933
20
-135
0
CIRCLE
5
104
100
AcDbEntity
8
0
100
AcDbCircle
10
6.6911141688090154
20
-16.060814575924923
30
0
40
1.3644997127940028
210
-0
220
0
230
1
0
CIRCLE
5
105
100
AcDbEntity
8
0
100
AcDbCircle
10
57.294292913011269
20
39.293645548420066
30
0
40
1.5000000000000036
210
-0
220
0
230
1
0
CIRCLE
5
106
100
AcDbEntity
8
0
100
AcDbCircle
10
-15.217815151451095
20
39.647456163763231
30
0
40
1.7499999999999982
210
-0
220
0
230
1
0
CIRCLE
5
107
100
AcDbEntity
8
0
100
AcDbCircle
10
-0.70570708698822315
20
39.293645548419946
30
0
40
1.5000000000000002
210
-0
220
0
230
1
0
CIRCLE
5
108
100
AcDbEntity
8
0
100
AcDbCircle
10
-37.987074688856794
20
-33.899479601943305
30
0
40
1.4999999999999902
210
-0
220
0
230
1
0
CIRCLE
5
109
100
AcDbEntity
8
0
100
AcDbCircle
10
-14.787074688857071
20
-81.979479601942913
30
0
40
1.499999999999988
210
-0
220
0
230
1
0
CIRCLE
5
110
100
AcDbEntity
8
0
100
AcDbCircle
10
-57.667074688856381
20
-105.47947960194233
30
0
40
1.4999999999999858
210
-0
220
0
230
1
0
CIRCLE
5
111
100
AcDbEntity
8
0
100
AcDbCircle
10
57.294292913011297
20
80.293645548420017
30
0
40
1.5000000000000036
210
-0
220
0
230
1
0
CIRCLE
5
112
100
AcDbEntity
8
0
100
AcDbCircle
10
66.07409540243593
20
115.76298382957202
30
0
40
3.4999999999999964
210
-0
220
0
230
1
0
CIRCLE
5
113
100
AcDbEntity
8
0
100
AcDbCircle
10
-65.925904597567154
20
115.76298382957123
30
0
40
3.4999999999999964
210
-0
220
0
230
1
0
CIRCLE
5
114
100
AcDbEntity
8
0
100
AcDbCircle
10
-65.925904597565861
20
1.7629838295712603
30
0
40
3.4999999999999964
210
-0
220
0
230
1
0
CIRCLE
5
115
100
AcDbEntity
8
0
100
AcDbCircle
10
-29.925904597564269
20
-135.23701617042838
30
0
40
3.5000000000000009
210
-0
220
0
230
1
0
CIRCLE
5
116
100
AcDbEntity
8
0
100
AcDbCircle
10
55.691114168808653
20
-16.060814575924592
30
0
40
1.3644997127940073
210
-0
220
0
230
1
0
CIRCLE
5
117
100
AcDbEntity
8
0
100
AcDbCircle
10
12.890200244098931
20
-16.409368656324926
30
0
40
1.5000000000000036
210
-0
220
0
230
1
0
CIRCLE
5
118
100
AcDbEntity
8
0
100
AcDbCircle
10
49.642169599989103
20
-74.179071090854407
30
0
40
1.5000000000000036
210
-0
220
0
230
1
0
CIRCLE
5
119
100
AcDbEntity
8
0
100
AcDbCircle
10
8.0740954024358533
20
-138.73701617042812
30
0
40
1.5221151393706156
210
-0
220
0
230
1
0
CIRCLE
5
120
100
AcDbEntity
8
0
100
AcDbCircle
10
6.6911141688094293
20
-74.146327058114679
30
0
40
1.3644997127940028
210
-0
220
0
230
1
0
LWPOLYLINE
5
121
100
AcDbEntity
8
0
100
AcDbPolyline
90
4
70
1
43
0.0
10
-15.925904597565905
20
-14.737016170440171
10
-15.925904597565905
20
-7.7370161704277205
10
2.0740954024294855
20
-7.7370161704234439
10
2.0740954024340938
20
-14.737016170423443
0
CIRCLE
5
122
100
AcDbEntity
8
0
100
AcDbCircle
10
-7.9259045975641476
20
-138.73701617042823
30
0
40
1.5221151393706156
210
-0
220
0
230
1
0
CIRCLE
5
123
100
AcDbEntity
8
0
100
AcDbCircle
10
-65.925904597565591
20
-23.237016170428738
30
0
40
3.4999999999999964
210
-0
220
0
230
1
0
CIRCLE
5
124
100
AcDbEntity
8
0
100
AcDbCircle
10
55.691114168809094
20
-74.146327058114352
30
0
40
1.3644997127940073
210
-0
220
0
230
1
0
CIRCLE
5
125
100
AcDbEntity
8
0
100
AcDbCircle
10
0.074095402435774949
20
-125.23701617042821
30
0
40
6.5
210
-0
220
0
230
1
0
LWPOLYLINE
5
126
100
AcDbEntity
8
0
100
AcDbPolyline
90
4
70
1
43
0.0
10
-13.925904597564445
20
-120.00000000000017
10
-13.925904597564273
20
-135.00000000000017
10
-17.925904597564273
20
-135.00000000000023
10
-17.92590459756444
20
-120.00000000000021
0
LWPOLYLINE
5
127
100
AcDbEntity
8
0
100
AcDbPolyline
90
4
70
1
43
0.0
10
-42.425904597565875
20
-15.910673896161967
10
-42.425904597565903
20
-5.9106738961620255
10
-22.425904597565935
20
-5.9106738961621019
10
-22.425904597565875
20
-15.910673896162102
0
CIRCLE
5
128
100
AcDbEntity
8
0
100
AcDbCircle
10
-45.925904597567154
20
115.76298382957148
30
0
40
3.4999999999999964
210
-0
220
0
230
1
0
CIRCLE
5
129
100
AcDbEntity
8
0
100
AcDbCircle
10
30.074095402435933
20
-135.23701617042803
30
0
40
3.5000000000000009
210
-0
220
0
230
1
0
CIRCLE
5
130
100
AcDbEntity
8
0
100
AcDbCircle
10
46.07409540243593
20
115.76298382957202
30
0
40
3.4999999999999964
210
-0
220
0
230
1
0
LWPOLYLINE
5
131
100
AcDbEntity
8
0
100
AcDbPolyline
90
4
70
1
43
0.0
10
-48.925904597565868
20
-7.7370161704324145
10
-48.925904597565868
20
-14.737016170424489
10
-66.925904597565861
20
-14.737016170432417
10
-66.925904597565861
20
-7.737016170424492
0
CIRCLE
5
132
100
AcDbEntity
8
0
100
AcDbCircle
10
66.074095402435958
20
-23.237016170427975
30
0
40
3.4999999999999964
210
-0
220
0
230
1
0
CIRCLE
5
133
100
AcDbEntity
8
0
100
AcDbCircle
10
66.074095402435944
20
1.7629838295720246
30
0
40
3.4999999999999964
210
-0
220
0
230
1
0
LWPOLYLINE
5
134
100
AcDbEntity
8
0
100
AcDbPolyline
90
12
70
1
43
0.0
10
74.145163214301391
20
-115.34178620046998
42
0.19891236737965801
10
77.074095402435972
20
-108.27071838860439
10
77.07409540243593
20
116.76298382957199
42
0.41421356237309659
10
67.07409540243583
20
126.76298382957202
10
-66.925904597567268
20
126.76298382957125
42
0.41421356237309709
10
-76.925904597567197
20
116.76298382957114
10
-76.92590459756461
20
-108.27071838860522
42
0.19891236737965939
10
-73.996972409429958
20
-115.34178620047084
10
-48.444888189976965
20
-140.8938704199185
42
0.19891236737965534
10
-42.788033940478783
20
-143.23701617042846
10
42.936224745350543
20
-143.23701617042798
42
0.1989123673796557
10
48.593078994848696
20
-140.89387041991793
0
ENDSEC
0
SECTION
2
OBJECTS
0
DICTIONARY
5
C
100
AcDbDictionary
3
ACAD_GROUP
350
D
3
ACAD_MLINESTYLE
350
17
0
DICTIONARY
5
D
100
AcDbDictionary
0
DICTIONARY
5
1A
330
C
100
AcDbDictionary
0
DICTIONARY
5
17
100
AcDbDictionary
0
ENDSEC
0
EOF
