0
SECTION
2
HEADER
9
$INSUNITS
70
4
9
$ACADVER
1
AC1014
9
$HANDSEED
5
FFFF
0
ENDSEC
0
SECTION
2
TABLES
0
TABLE
2
VPORT
5
8
100
AcDbSymbolTable
0
ENDTAB
0
TABLE
2
LTYPE
5
5
100
AcDbSymbolTable
0
LTYPE
5
14
100
AcDbSymbolTableRecord
100
AcDbLinetypeTableRecord
2
BYBLOCK
70
0
0
LTYPE
5
15
100
AcDbSymbolTableRecord
100
AcDbLinetypeTableRecord
2
BYLAYER
70
0
0
LTYPE
5
16
100
AcDbSymbolTableRecord
100
AcDbLinetypeTableRecord
2
DASHED
70
0
3
Dashed __ __ __ __ __ __ __ __ __ __ __ __ __ _
72
65
73
2
40
0.75
49
0.5
74
0
49
-0.25
74
0
0
ENDTAB
0
TABLE
2
LAYER
5
2
100
AcDbSymbolTable
70
2
0
LAYER
5
50
100
AcDbSymbolTableRecord
100
AcDbLayerTableRecord
2
0
70
0
62
7
6
CONTINUOUS
0
ENDTAB
0
TABLE
2
STYLE
5
3
100
AcDbSymbolTable
70
1
0
STYLE
5
11
100
AcDbSymbolTableRecord
100
AcDbTextStyleTableRecord
2
STANDARD
70
0
0
ENDTAB
0
TABLE
2
VIEW
5
6
100
AcDbSymbolTable
70
0
0
ENDTAB
0
TABLE
2
UCS
5
7
100
AcDbSymbolTable
70
0
0
ENDTAB
0
TABLE
2
APPID
5
9
100
AcDbSymbolTable
70
2
0
APPID
5
12
100
AcDbSymbolTableRecord
100
AcDbRegAppTableRecord
2
ACAD
70
0
0
ENDTAB
0
TABLE
2
DIMSTYLE
5
A
100
AcDbSymbolTable
70
1
0
ENDTAB
0
TABLE
2
BLOCK_RECORD
5
1
100
AcDbSymbolTable
70
1
0
BLOCK_RECORD
5
1F
100
AcDbSymbolTableRecord
100
AcDbBlockTableRecord
2
*MODEL_SPACE
0
BLOCK_RECORD
5
1B
100
AcDbSymbolTableRecord
100
AcDbBlockTableRecord
2
*PAPER_SPACE
0
ENDTAB
0
ENDSEC
0
SECTION
2
BLOCKS
0
BLOCK
5
20
100
AcDbEntity
100
AcDbBlockBegin
2
*MODEL_SPACE
0
ENDBLK
5
21
100
AcDbEntity
100
AcDbBlockEnd
0
BLOCK
5
1C
100
AcDbEntity
100
AcDbBlockBegin
2
*PAPER_SPACE
0
ENDBLK
5
1D
100
AcDbEntity
100
AcDbBlockEnd
0
ENDSEC
0
SECTION
2
ENTITIES
0
CIRCLE
5
100
100
AcDbEntity
8
0
100
AcDbCircle
10
-66.330720233640392
20
-15.17646637051978
30
0
40
3.499999999999996
210
0
220
-0
230
1
0
CIRCLE
5
101
100
AcDbEntity
8
0
100
AcDbCircle
10
-42.247399937740504
20
51.754931588299719
30
0
40
2.5
210
0
220
-0
230
1
0
CIRCLE
5
102
100
AcDbEntity
8
0
100
AcDbCircle
10
-37.838145470240427
20
29.301074772199737
30
0
40
1.4999999999999991
210
0
220
-0
230
1
0
CIRCLE
5
103
100
AcDbEntity
8
0
100
AcDbCircle
10
-42.247399937740688
20
105.25493158829973
30
0
40
2.5
210
0
220
-0
230
1
0
LWPOLYLINE
5
104
100
AcDbEntity
8
0
100
AcDbPolyline
90
4
70
1
43
0.0
10
-49.330720233641863
20
0.32353362793622331
10
-49.330720233648037
20
-6.6764663720558515
10
-67.330720233640349
20
-6.6764663721025874
10
-67.330720233640349
20
0.32353362790533913
0
LWPOLYLINE
5
105
100
AcDbEntity
8
0
100
AcDbPolyline
90
4
70
1
43
0.0
10
-28.33072023363988
20
-120.0000000000002
10
-33.33072023363988
20
-120.00000000000023
10
-33.330720233639987
20
-105.00000000000023
10
-28.330720233639987
20
-105.0000000000002
0
CIRCLE
5
106
100
AcDbEntity
8
0
100
AcDbCircle
10
65.51518436392486
20
-65.182519975352363
30
0
40
2.5
210
0
220
-0
230
1
0
CIRCLE
5
107
100
AcDbEntity
8
0
100
AcDbCircle
10
-39.030804555550056
20
-93.7384960762341
30
0
40
1.500000000000008
210
0
220
0
230
1
0
CIRCLE
5
108
100
AcDbEntity
8
0
100
AcDbCircle
10
10.098279766360053
20
-107.25989252522504
30
0
40
2.5000000024336821
210
0
220
-0
230
1
0
CIRCLE
5
109
100
AcDbEntity
8
0
100
AcDbCircle
10
38.369364088270068
20
-93.73849607623383
30
0
40
1.500000000000008
210
0
220
-0
230
1
0
CIRCLE
5
110
100
AcDbEntity
8
0
100
AcDbCircle
10
37.176705002959579
20
29.3010747722
30
0
40
1.4999999999999991
210
0
220
-0
230
1
0
CIRCLE
5
111
100
AcDbEntity
8
0
100
AcDbCircle
10
29.670117260944654
20
-127.18235519868757
30
0
40
3.5000000000000009
210
0
220
-0
230
1
0
CIRCLE
5
112
100
AcDbEntity
8
0
100
AcDbCircle
10
-10.759720233639879
20
-128.11789252522513
30
0
40
2.5
210
0
220
-0
230
1
0
CIRCLE
5
113
100
AcDbEntity
8
0
100
AcDbCircle
10
61.5859594704595
20
51.754931588299975
30
0
40
2.0999999999999996
210
0
220
-0
230
1
0
LWPOLYLINE
5
114
100
AcDbEntity
8
0
100
AcDbPolyline
90
4
70
1
43
0.0
10
1.6692797663768477
20
0.32353362793413387
10
1.6692797664014591
20
-6.6764663720709176
10
-16.330720233641891
20
-6.6764663721102036
10
-16.330720233641891
20
0.32353362789993234
0
CIRCLE
5
115
100
AcDbEntity
8
0
100
AcDbCircle
10
46.215184363924855
20
-65.182519975352491
30
0
40
2.5
210
0
220
-0
230
1
0
CIRCLE
5
116
100
AcDbEntity
8
0
100
AcDbCircle
10
-66.176624831205032
20
-65.182519975352832
30
0
40
2.5
210
0
220
-0
230
1
0
LWPOLYLINE
5
117
100
AcDbEntity
8
0
100
AcDbPolyline
90
4
70
1
43
0.0
10
27.669279766360066
20
-105
10
32.669279766360063
20
-105
10
32.669279766360063
20
-120
10
27.669279766360066
20
-120
0
CIRCLE
5
118
100
AcDbEntity
8
0
100
AcDbCircle
10
65.669279766358272
20
123.86670521433382
30
0
40
3.4995236731020896
210
0
220
-0
230
1
0
CIRCLE
5
119
100
AcDbEntity
8
0
100
AcDbCircle
10
-38.778277935040741
20
120.02353362939974
30
0
40
1.500000000000008
210
0
220
-0
230
1
0
CIRCLE
5
120
100
AcDbEntity
8
0
100
AcDbCircle
10
-62.247399937740688
20
105.25493158829332
30
0
40
2.5
210
0
220
-0
230
1
0
CIRCLE
5
121
100
AcDbEntity
8
0
100
AcDbCircle
10
-66.330720233639781
20
123.86670521433408
30
0
40
3.4995236731020896
210
0
220
-0
230
1
0
CIRCLE
5
122
100
AcDbEntity
8
0
100
AcDbCircle
10
-62.247399937740504
20
51.754931588293296
30
0
40
2.0999999999999996
210
0
220
-0
230
1
0
CIRCLE
5
123
100
AcDbEntity
8
0
100
AcDbCircle
10
38.116837467759261
20
120.02353362940001
30
0
40
1.500000000000008
210
0
220
-0
230
1
0
CIRCLE
5
124
100
AcDbEntity
8
0
100
AcDbCircle
10
41.585959470459315
20
105.25493158830001
30
0
40
2.5
210
0
220
-0
230
1
0
CIRCLE
5
125
100
AcDbEntity
8
0
100
AcDbCircle
10
61.585959470459315
20
105.25493158830001
30
0
40
2.5
210
0
220
-0
230
1
0
CIRCLE
5
126
100
AcDbEntity
8
0
100
AcDbCircle
10
-30.331557728224411
20
-127.18235519868779
30
0
40
3.5000000000000009
210
0
220
-0
230
1
0
CIRCLE
5
127
100
AcDbEntity
8
0
100
AcDbCircle
10
65.669279766359864
20
-15.17646637051932
30
0
40
3.499999999999996
210
0
220
-0
230
1
0
CIRCLE
5
128
100
AcDbEntity
8
0
100
AcDbCircle
10
41.5859594704595
20
51.754931588300011
30
0
40
2.5
210
0
220
-0
230
1
0
LWPOLYLINE
5
129
100
AcDbEntity
8
0
100
AcDbPolyline
90
4
70
1
43
0.0
10
-22.830720233641848
20
-7.8501240978323192
10
-42.830720233641848
20
-7.8501240978327314
10
-42.830720233641877
20
2.149875902167373
10
-22.830720233641788
20
2.1498759021676861
0
CIRCLE
5
130
100
AcDbEntity
8
0
100
AcDbCircle
10
-10.759720233639952
20
-107.25989252522511
30
0
40
2.5000000024336821
210
0
220
-0
230
1
0
CIRCLE
5
131
100
AcDbEntity
8
0
100
AcDbCircle
10
10.098279766360125
20
-128.11789252522505
30
0
40
2.5
210
0
220
-0
230
1
0
LWPOLYLINE
5
132
100
AcDbEntity
8
0
100
AcDbPolyline
90
30
70
1
43
0.0
10
-79.075376224921627
20
-63.860695005790824
42
0.41194075500198485
10
-78.850082630182811
20
-66.724743949596487
10
-64.131584691406317
20
-79.281872238886265
42
-0.37382779026296931
10
-62.949002470428766
20
-87.251302978851371
10
-72.978011549353269
20
-102.95804263481054
42
0.32052281927625004
10
-70.87661370135136
20
-115.57340278921416
10
-53.616667457487083
20
-132.83330270174685
42
0.19885522562216623
10
-47.963353303217531
20
-135.17646637208929
10
-0.33072023363985181
20
-135.19237635539386
10
47.301912835937827
20
-135.17646637208603
42
0.19885522562216584
10
52.955226990205333
20
-132.83330270174443
10
70.215173234071543
20
-115.57340278921373
42
0.32052281927624993
10
72.316571082073352
20
-102.95804263481003
10
62.28756200314875
20
-87.25130297885093
42
-0.37382779026296925
10
63.470144224126237
20
-79.281872238885825
10
78.188642162902624
20
-66.72474394959599
42
0.41194075500200023
10
78.413935757641468
20
-63.860695005790198
10
65.015557684256166
20
-48.214019325883058
42
-0.49751538040109844
10
66.184978084313485
20
-38.948372009421988
10
74.351599955163792
20
-34.312330549170312
42
0.2666552726570785
10
76.6692797663558
20
-30.464718890494645
10
76.669279766358258
20
124.89332970700698
42
0.41258603663257715
10
66.647410447502409
20
134.82353362791838
10
-0.33072023364079328
20
134.70201580666324
10
-67.308850914784003
20
134.82353362791386
42
0.41258603663244808
10
-77.330720233639767
20
124.89332970700644
10
-77.330720233640463
20
-30.464718890495295
42
0.26665527265707767
10
-75.013040422446252
20
-34.312330549174533
10
-66.846418551593871
20
-38.948372009422478
42
-0.49751538040109733
10
-65.676998151536438
20
-48.214019325883555
0
CIRCLE
5
133
100
AcDbEntity
8
0
100
AcDbCircle
10
10.098279766360125
20
-128.11789252522505
30
0
40
2.5
210
-0
220
0
230
1
0
CIRCLE
5
134
100
AcDbEntity
8
0
100
AcDbCircle
10
-10.759720233639952
20
-107.25989252522511
30
0
40
2.5000000024336821
210
-0
220
0
230
1
0
LWPOLYLINE
5
135
100
AcDbEntity
8
0
100
AcDbPolyline
90
4
70
1
43
0.0
10
-22.830720233641788
20
2.1498759021676852
10
-22.830720233641848
20
-7.8501240978323192
10
-42.830720233641848
20
-7.8501240978327314
10
-42.830720233641877
20
2.1498759021673735
0
CIRCLE
5
136
100
AcDbEntity
8
0
100
AcDbCircle
10
41.5859594704595
20
51.754931588300011
30
0
40
2.5
210
-0
220
0
230
1
0
CIRCLE
5
137
100
AcDbEntity
8
0
100
AcDbCircle
10
65.669279766359864
20
-15.17646637051932
30
0
40
3.4999999999999964
210
-0
220
0
230
1
0
CIRCLE
5
138
100
AcDbEntity
8
0
100
AcDbCircle
10
-30.331557728224411
20
-127.18235519868779
30
0
40
3.5000000000000009
210
-0
220
0
230
1
0
CIRCLE
5
139
100
AcDbEntity
8
0
100
AcDbCircle
10
61.585959470459315
20
105.25493158830001
30
0
40
2.5
210
-0
220
0
230
1
0
CIRCLE
5
140
100
AcDbEntity
8
0
100
AcDbCircle
10
41.585959470459315
20
105.25493158830001
30
0
40
2.5
210
-0
220
0
230
1
0
CIRCLE
5
141
100
AcDbEntity
8
0
100
AcDbCircle
10
38.116837467759261
20
120.02353362940001
30
0
40
1.500000000000008
210
-0
220
0
230
1
0
CIRCLE
5
142
100
AcDbEntity
8
0
100
AcDbCircle
10
-62.247399937740504
20
51.754931588293296
30
0
40
2.0999999999999996
210
-0
220
0
230
1
0
CIRCLE
5
143
100
AcDbEntity
8
0
100
AcDbCircle
10
-66.330720233639781
20
123.86670521433408
30
0
40
3.4995236731020896
210
-0
220
0
230
1
0
CIRCLE
5
144
100
AcDbEntity
8
0
100
AcDbCircle
10
-62.247399937740688
20
105.25493158829332
30
0
40
2.5
210
-0
220
0
230
1
0
CIRCLE
5
145
100
AcDbEntity
8
0
100
AcDbCircle
10
-38.778277935040741
20
120.02353362939974
30
0
40
1.500000000000008
210
-0
220
0
230
1
0
CIRCLE
5
146
100
AcDbEntity
8
0
100
AcDbCircle
10
65.669279766358272
20
123.86670521433382
30
0
40
3.4995236731020896
210
-0
220
0
230
1
0
LWPOLYLINE
5
147
100
AcDbEntity
8
0
100
AcDbPolyline
90
4
70
1
43
0.0
10
27.66927976636007
20
-120
10
27.66927976636007
20
-105
10
32.66927976636007
20
-105
10
32.66927976636007
20
-120
0
CIRCLE
5
148
100
AcDbEntity
8
0
100
AcDbCircle
10
-66.176624831205032
20
-65.182519975352832
30
0
40
2.5
210
-0
220
0
230
1
0
CIRCLE
5
149
100
AcDbEntity
8
0
100
AcDbCircle
10
46.215184363924855
20
-65.182519975352491
30
0
40
2.5
210
-0
220
0
230
1
0
LWPOLYLINE
5
150
100
AcDbEntity
8
0
100
AcDbPolyline
90
4
70
1
43
0.0
10
-16.330720233641891
20
0.32353362789993123
10
1.6692797663768433
20
0.32353362793413443
10
1.6692797664014625
20
-6.6764663720709176
10
-16.330720233641891
20
-6.6764663721102036
0
CIRCLE
5
151
100
AcDbEntity
8
0
100
AcDbCircle
10
61.5859594704595
20
51.754931588299975
30
0
40
2.0999999999999996
210
-0
220
0
230
1
0
CIRCLE
5
152
100
AcDbEntity
8
0
100
AcDbCircle
10
-10.759720233639879
20
-128.11789252522513
30
0
40
2.5
210
-0
220
0
230
1
0
CIRCLE
5
153
100
AcDbEntity
8
0
100
AcDbCircle
10
29.670117260944654
20
-127.18235519868757
30
0
40
3.5000000000000009
210
-0
220
0
230
1
0
CIRCLE
5
154
100
AcDbEntity
8
0
100
AcDbCircle
10
37.176705002959579
20
29.3010747722
30
0
40
1.4999999999999991
210
-0
220
0
230
1
0
CIRCLE
5
155
100
AcDbEntity
8
0
100
AcDbCircle
10
38.369364088270068
20
-93.73849607623383
30
0
40
1.500000000000008
210
-0
220
0
230
1
0
CIRCLE
5
156
100
AcDbEntity
8
0
100
AcDbCircle
10
10.098279766360053
20
-107.25989252522504
30
0
40
2.5000000024336821
210
-0
220
0
230
1
0
CIRCLE
5
157
100
AcDbEntity
8
0
100
AcDbCircle
10
-39.030804555550056
20
-93.7384960762341
30
0
40
1.500000000000008
210
-0
220
0
230
1
0
CIRCLE
5
158
100
AcDbEntity
8
0
100
AcDbCircle
10
65.51518436392486
20
-65.182519975352363
30
0
40
2.5
210
-0
220
0
230
1
0
LWPOLYLINE
5
159
100
AcDbEntity
8
0
100
AcDbPolyline
90
4
70
1
43
0.0
10
-28.330720233639987
20
-105.0000000000002
10
-28.33072023363988
20
-120.0000000000002
10
-33.33072023363988
20
-120.00000000000023
10
-33.330720233639987
20
-105.00000000000023
0
LWPOLYLINE
5
160
100
AcDbEntity
8
0
100
AcDbPolyline
90
4
70
1
43
0.0
10
-67.330720233640349
20
0.32353362790533857
10
-49.330720233641863
20
0.32353362793622276
10
-49.330720233648037
20
-6.6764663720558515
10
-67.330720233640349
20
-6.6764663721025874
0
CIRCLE
5
161
100
AcDbEntity
8
0
100
AcDbCircle
10
-42.247399937740688
20
105.25493158829973
30
0
40
2.5
210
-0
220
0
230
1
0
CIRCLE
5
162
100
AcDbEntity
8
0
100
AcDbCircle
10
-37.838145470240427
20
29.301074772199737
30
0
40
1.4999999999999991
210
-0
220
0
230
1
0
CIRCLE
5
163
100
AcDbEntity
8
0
100
AcDbCircle
10
-42.247399937740504
20
51.754931588299719
30
0
40
2.5
210
-0
220
0
230
1
0
CIRCLE
5
164
100
AcDbEntity
8
0
100
AcDbCircle
10
-66.330720233640392
20
-15.17646637051978
30
0
40
3.4999999999999964
210
-0
220
0
230
1
0
LWPOLYLINE
5
165
100
AcDbEntity
8
0
100
AcDbPolyline
90
30
70
1
43
0.0
10
-79.075376224921627
20
-63.860695005790824
10
-65.676998151536466
20
-48.214019325883541
42
0.49751538040109755
10
-66.846418551593871
20
-38.948372009422478
10
-75.013040422446252
20
-34.312330549174533
42
-0.26665527265707778
10
-77.330720233640463
20
-30.464718890495291
10
-77.330720233639767
20
124.89332970700644
42
-0.41258603663244808
10
-67.308850914784003
20
134.82353362791386
10
-0.33072023364079328
20
134.70201580666324
10
66.647410447502409
20
134.82353362791838
42
-0.41258603663257654
10
76.669279766358258
20
124.89332970700698
10
76.6692797663558
20
-30.464718890494645
42
-0.26665527265707861
10
74.351599955163792
20
-34.312330549170312
10
66.184978084313485
20
-38.948372009421981
42
0.49751538040109816
10
65.015557684256152
20
-48.214019325883051
10
78.413935757641468
20
-63.860695005790191
42
-0.41194075500200134
10
78.188642162902624
20
-66.72474394959599
10
63.470144224126237
20
-79.281872238885825
42
0.37382779026296925
10
62.287562003148757
20
-87.25130297885093
10
72.316571082073352
20
-102.95804263481003
42
-0.3205228192762497
10
70.215173234071543
20
-115.57340278921373
10
52.955226990205333
20
-132.83330270174443
42
-0.19885522562216584
10
47.301912835937827
20
-135.17646637208603
10
-0.33072023363985181
20
-135.19237635539386
10
-47.963353303217531
20
-135.17646637208929
42
-0.19885522562216629
10
-53.616667457487083
20
-132.83330270174685
10
-70.87661370135136
20
-115.57340278921416
42
-0.32052281927625004
10
-72.978011549353269
20
-102.95804263481054
10
-62.949002470428788
20
-87.251302978851356
42
0.37382779026296958
10
-64.131584691406317
20
-79.281872238886251
10
-78.850082630182811
20
-66.724743949596487
42
-0.41194075500198585
0
ENDSEC
0
SECTION
2
OBJECTS
0
DICTIONARY
5
C
100
AcDbDictionary
3
ACAD_GROUP
350
D
3
ACAD_MLINESTYLE
350
17
0
DICTIONARY
5
D
100
AcDbDictionary
0
DICTIONARY
5
1A
330
C
100
AcDbDictionary
0
DICTIONARY
5
17
100
AcDbDictionary
0
ENDSEC
0
EOF
